<svg width="1787" height="636" viewBox="0 0 1787 636" fill="none" xmlns="http://www.w3.org/2000/svg">
<path d="M364.1 39.8C309.5 18.8 257.9 8.29998 209.3 8.29998C161.3 8.29998 123.8 18.5 96.8 38.9C69.8 59.3 56.3 87.5 56.3 123.5C56.3 167.3 79.1 201.2 124.7 225.2C145.1 235.4 167.3 245 191.3 254C215.9 262.4 240.5 272 265.1 282.8C289.7 293.6 312.2 305.9 332.6 319.7C353 333.5 369.5 352.7 382.1 377.3C394.7 401.3 401 432.2 401 470C401 507.2 390.5 539 369.5 565.4C348.5 591.8 323 609.8 293 619.4C263.6 628.4 229.1 632.9 189.5 632.9C115.7 632.9 52.7 614.6 0.5 578L5 570.8C24.8 586.4 50.3 599.3 81.5 609.5C113.3 619.1 145.7 623.9 178.7 623.9C227.3 623.9 268.7 612.8 302.9 590.6C337.7 567.8 355.1 534.5 355.1 490.7C355.1 442.7 332.3 405.2 286.7 378.2C266.3 366.2 243.8 355.1 219.2 344.9C195.2 334.7 170.9 324.2 146.3 313.4C121.7 302 99.2 289.4 78.8 275.6C33.2 245.6 10.4 203 10.4 147.8C10.4 104 25.1 68.6 54.5 41.6C83.9 14 128 0.19998 186.8 0.19998C246.2 0.19998 306.5 10.4 367.7 30.8L364.1 39.8ZM839.884 632C799.084 632 771.184 624.2 756.184 608.6C742.384 595.4 735.484 584 735.484 574.4V555.5C706.084 608.9 658.984 635.6 594.184 635.6C518.584 635.6 475.684 601.4 465.484 533C464.284 525.8 463.684 518.6 463.684 511.4C463.684 503.6 464.884 495.2 467.284 486.2C469.684 477.2 476.584 467.3 487.984 456.5C510.784 434.9 560.884 421.7 638.284 416.9C657.484 415.1 675.184 414.2 691.384 414.2C707.584 414.2 722.284 414.8 735.484 416V266.6C734.284 266 734.284 263.3 735.484 258.5C736.684 253.1 735.484 246.5 731.884 238.7C728.884 230.3 724.684 222.2 719.284 214.4C713.884 206.6 704.284 200 690.484 194.6C676.684 188.6 658.684 185.6 636.484 185.6C614.284 185.6 588.184 189.8 558.184 198.2C528.784 206 507.184 213.8 493.384 221.6L489.784 215.3C543.184 190.7 597.484 178.4 652.684 178.4C714.484 178.4 755.284 189.5 775.084 211.7C790.684 229.1 798.484 247.4 798.484 266.6V568.1C798.484 585.5 801.784 599 808.384 608.6C815.584 617.6 822.784 622.4 829.984 623L839.884 624.8H867.784V632H839.884ZM608.584 628.4C640.384 628.4 668.884 617.6 694.084 596C719.884 573.8 733.684 552.5 735.484 532.1V423.2C719.284 422 702.784 421.4 685.984 421.4C669.784 421.4 653.584 422.3 637.384 424.1C591.784 429.5 562.084 439.7 548.284 454.7C534.484 469.7 527.584 490.4 527.584 516.8C527.584 521.6 527.884 527 528.484 533C533.884 596.6 560.584 628.4 608.584 628.4ZM1290.8 632C1266.2 632 1247.3 626.6 1234.1 615.8C1221.5 605 1214.9 594.2 1214.3 583.4L1213.4 568.1V285.5C1213.4 238.1 1201.1 207.8 1176.5 194.6C1163.9 188.6 1148.3 185.6 1129.7 185.6C1091.3 185.6 1056.8 200.9 1026.2 231.5C995.605 261.5 980.305 288.5 980.305 312.5V632H917.305V182H980.305V284.6C990.505 258.8 1009.4 234.8 1037 212.6C1064.6 189.8 1094.9 178.4 1127.9 178.4C1160.9 178.4 1187.6 181.7 1208 188.3C1229 194.3 1244.3 203 1253.9 214.4C1268.9 233 1276.4 257 1276.4 286.4V568.1C1276.4 585.5 1279.7 599 1286.3 608.6C1293.5 617.6 1300.7 622.4 1307.9 623L1317.8 624.8H1345.7V632H1290.8ZM1568.3 635.6C1505.3 635.6 1454 617.6 1414.4 581.6C1374.8 545.6 1355 490.1 1355 415.1C1355 340.1 1375.4 281.9 1416.2 240.5C1457.6 199.1 1509.8 178.4 1572.8 178.4C1636.4 178.4 1688 196.4 1727.6 232.4C1767.2 268.4 1787 323.9 1787 398.9C1787 473.9 1766.3 532.1 1724.9 573.5C1684.1 614.9 1631.9 635.6 1568.3 635.6ZM1574.6 185.6C1529 185.6 1491.2 206 1461.2 246.8C1431.2 287 1416.2 343.4 1416.2 416C1416.2 488 1430 541.4 1457.6 576.2C1485.2 611 1521.8 628.4 1567.4 628.4C1613 628.4 1650.8 608.3 1680.8 568.1C1710.8 527.3 1725.8 470.9 1725.8 398.9C1725.8 326.3 1712 272.6 1684.4 237.8C1656.8 203 1620.2 185.6 1574.6 185.6Z" fill="white"/>
</svg>
