<svg width="1789" height="638" viewBox="0 0 1789 638" fill="none" xmlns="http://www.w3.org/2000/svg">
<mask id="path-1-outside-1_1121_9" maskUnits="userSpaceOnUse" x="0" y="0" width="1789" height="638" fill="black">
<rect fill="white" width="1789" height="638"/>
<path d="M365.1 40.8C310.5 19.8 258.9 9.29998 210.3 9.29998C162.3 9.29998 124.8 19.5 97.8 39.9C70.8 60.3 57.3 88.5 57.3 124.5C57.3 168.3 80.1 202.2 125.7 226.2C146.1 236.4 168.3 246 192.3 255C216.9 263.4 241.5 273 266.1 283.8C290.7 294.6 313.2 306.9 333.6 320.7C354 334.5 370.5 353.7 383.1 378.3C395.7 402.3 402 433.2 402 471C402 508.2 391.5 540 370.5 566.4C349.5 592.8 324 610.8 294 620.4C264.6 629.4 230.1 633.9 190.5 633.9C116.7 633.9 53.7 615.6 1.5 579L6 571.8C25.8 587.4 51.3 600.3 82.5 610.5C114.3 620.1 146.7 624.9 179.7 624.9C228.3 624.9 269.7 613.8 303.9 591.6C338.7 568.8 356.1 535.5 356.1 491.7C356.1 443.7 333.3 406.2 287.7 379.2C267.3 367.2 244.8 356.1 220.2 345.9C196.2 335.7 171.9 325.2 147.3 314.4C122.7 303 100.2 290.4 79.8 276.6C34.2 246.6 11.4 204 11.4 148.8C11.4 105 26.1 69.6 55.5 42.6C84.9 15 129 1.19998 187.8 1.19998C247.2 1.19998 307.5 11.4 368.7 31.8L365.1 40.8ZM840.884 633C800.084 633 772.184 625.2 757.184 609.6C743.384 596.4 736.484 585 736.484 575.4V556.5C707.084 609.9 659.984 636.6 595.184 636.6C519.584 636.6 476.684 602.4 466.484 534C465.284 526.8 464.684 519.6 464.684 512.4C464.684 504.6 465.884 496.2 468.284 487.2C470.684 478.2 477.584 468.3 488.984 457.5C511.784 435.9 561.884 422.7 639.284 417.9C658.484 416.1 676.184 415.2 692.384 415.2C708.584 415.2 723.284 415.8 736.484 417V267.6C735.284 267 735.284 264.3 736.484 259.5C737.684 254.1 736.484 247.5 732.884 239.7C729.884 231.3 725.684 223.2 720.284 215.4C714.884 207.6 705.284 201 691.484 195.6C677.684 189.6 659.684 186.6 637.484 186.6C615.284 186.6 589.184 190.8 559.184 199.2C529.784 207 508.184 214.8 494.384 222.6L490.784 216.3C544.184 191.7 598.484 179.4 653.684 179.4C715.484 179.4 756.284 190.5 776.084 212.7C791.684 230.1 799.484 248.4 799.484 267.6V569.1C799.484 586.5 802.784 600 809.384 609.6C816.584 618.6 823.784 623.4 830.984 624L840.884 625.8H868.784V633H840.884ZM609.584 629.4C641.384 629.4 669.884 618.6 695.084 597C720.884 574.8 734.684 553.5 736.484 533.1V424.2C720.284 423 703.784 422.4 686.984 422.4C670.784 422.4 654.584 423.3 638.384 425.1C592.784 430.5 563.084 440.7 549.284 455.7C535.484 470.7 528.584 491.4 528.584 517.8C528.584 522.6 528.884 528 529.484 534C534.884 597.6 561.584 629.4 609.584 629.4ZM1291.8 633C1267.2 633 1248.3 627.6 1235.1 616.8C1222.5 606 1215.9 595.2 1215.3 584.4L1214.4 569.1V286.5C1214.4 239.1 1202.1 208.8 1177.5 195.6C1164.9 189.6 1149.3 186.6 1130.7 186.6C1092.3 186.6 1057.8 201.9 1027.2 232.5C996.605 262.5 981.305 289.5 981.305 313.5V633H918.305V183H981.305V285.6C991.505 259.8 1010.4 235.8 1038 213.6C1065.6 190.8 1095.9 179.4 1128.9 179.4C1161.9 179.4 1188.6 182.7 1209 189.3C1230 195.3 1245.3 204 1254.9 215.4C1269.9 234 1277.4 258 1277.4 287.4V569.1C1277.4 586.5 1280.7 600 1287.3 609.6C1294.5 618.6 1301.7 623.4 1308.9 624L1318.8 625.8H1346.7V633H1291.8ZM1569.3 636.6C1506.3 636.6 1455 618.6 1415.4 582.6C1375.8 546.6 1356 491.1 1356 416.1C1356 341.1 1376.4 282.9 1417.2 241.5C1458.6 200.1 1510.8 179.4 1573.8 179.4C1637.4 179.4 1689 197.4 1728.6 233.4C1768.2 269.4 1788 324.9 1788 399.9C1788 474.9 1767.3 533.1 1725.9 574.5C1685.1 615.9 1632.9 636.6 1569.3 636.6ZM1575.6 186.6C1530 186.6 1492.2 207 1462.2 247.8C1432.2 288 1417.2 344.4 1417.2 417C1417.2 489 1431 542.4 1458.6 577.2C1486.2 612 1522.8 629.4 1568.4 629.4C1614 629.4 1651.8 609.3 1681.8 569.1C1711.8 528.3 1726.8 471.9 1726.8 399.9C1726.8 327.3 1713 273.6 1685.4 238.8C1657.8 204 1621.2 186.6 1575.6 186.6Z"/>
</mask>
<path d="M365.1 40.8L364.741 41.7333L365.662 42.0875L366.028 41.1713L365.1 40.8ZM97.8 39.9L97.1972 39.1021L97.1972 39.1021L97.8 39.9ZM125.7 226.2L125.234 227.085L125.243 227.09L125.253 227.094L125.7 226.2ZM192.3 255L191.949 255.936L191.963 255.942L191.977 255.946L192.3 255ZM266.1 283.8L266.502 282.884L266.502 282.884L266.1 283.8ZM383.1 378.3L382.21 378.756L382.215 378.765L383.1 378.3ZM370.5 566.4L371.283 567.023L371.283 567.023L370.5 566.4ZM294 620.4L294.293 621.356L294.305 621.352L294 620.4ZM1.5 579L0.652002 578.47L0.149322 579.274L0.925906 579.819L1.5 579ZM6 571.8L6.61887 571.015L5.74299 570.324L5.152 571.27L6 571.8ZM82.5 610.5L82.1893 611.45L82.2001 611.454L82.211 611.457L82.5 610.5ZM303.9 591.6L304.444 592.439L304.448 592.436L303.9 591.6ZM287.7 379.2L288.21 378.34L288.207 378.338L287.7 379.2ZM220.2 345.9L219.809 346.82L219.817 346.824L220.2 345.9ZM147.3 314.4L146.88 315.307L146.889 315.312L146.898 315.316L147.3 314.4ZM79.8 276.6L80.3604 275.772L80.3496 275.765L79.8 276.6ZM55.5 42.6L56.1765 43.3366L56.1844 43.3291L55.5 42.6ZM368.7 31.8L369.628 32.1714L370.022 31.1867L369.016 30.8513L368.7 31.8ZM365.459 39.8666C310.767 18.8313 259.045 8.29998 210.3 8.29998V10.3C258.755 10.3 310.233 20.7686 364.741 41.7333L365.459 39.8666ZM210.3 8.29998C162.171 8.29998 124.43 18.5261 97.1972 39.1021L98.4028 40.6978C125.17 20.4739 162.429 10.3 210.3 10.3V8.29998ZM97.1972 39.1021C69.929 59.7047 56.3 88.2098 56.3 124.5H58.3C58.3 88.7902 71.671 60.8953 98.4028 40.6978L97.1972 39.1021ZM56.3 124.5C56.3 168.744 79.3758 202.949 125.234 227.085L126.166 225.315C80.8242 201.451 58.3 167.856 58.3 124.5H56.3ZM125.253 227.094C145.688 237.312 167.92 246.926 191.949 255.936L192.651 254.064C168.68 245.074 146.512 235.488 126.147 225.306L125.253 227.094ZM191.977 255.946C216.549 264.337 241.123 273.927 265.698 284.716L266.502 282.884C241.877 272.073 217.251 262.463 192.623 254.054L191.977 255.946ZM265.698 284.716C290.248 295.494 312.694 307.765 333.04 321.528L334.16 319.872C313.706 306.035 291.152 293.706 266.502 282.884L265.698 284.716ZM333.04 321.528C353.284 335.223 369.677 354.287 382.21 378.756L383.99 377.844C371.323 353.113 354.716 333.777 334.16 319.872L333.04 321.528ZM382.215 378.765C394.716 402.576 401 433.302 401 471H403C403 433.098 396.684 402.024 383.985 377.835L382.215 378.765ZM401 471C401 507.999 390.562 539.573 369.717 565.777L371.283 567.023C392.438 540.427 403 508.401 403 471H401ZM369.717 565.777C348.831 592.034 323.493 609.912 293.695 619.448L294.305 621.352C324.507 611.688 350.169 593.566 371.283 567.023L369.717 565.777ZM293.707 619.444C264.425 628.408 230.028 632.9 190.5 632.9V634.9C230.172 634.9 264.775 630.392 294.293 621.356L293.707 619.444ZM190.5 632.9C116.872 632.9 54.0805 614.645 2.07409 578.181L0.925906 579.819C53.3195 616.555 116.528 634.9 190.5 634.9V632.9ZM2.348 579.53L6.848 572.33L5.152 571.27L0.652002 578.47L2.348 579.53ZM5.38113 572.585C25.2965 588.276 50.9096 601.224 82.1893 611.45L82.8107 609.55C51.6904 599.376 26.3035 586.524 6.61887 571.015L5.38113 572.585ZM82.211 611.457C114.104 621.085 146.601 625.9 179.7 625.9V623.9C146.799 623.9 114.496 619.115 82.789 609.543L82.211 611.457ZM179.7 625.9C228.456 625.9 270.053 614.763 304.444 592.439L303.356 590.761C269.347 612.837 228.144 623.9 179.7 623.9V625.9ZM304.448 592.436C339.547 569.44 357.1 535.816 357.1 491.7H355.1C355.1 535.184 337.853 568.16 303.352 590.764L304.448 592.436ZM357.1 491.7C357.1 443.304 334.075 405.497 288.21 378.34L287.191 380.06C332.525 406.903 355.1 444.096 355.1 491.7H357.1ZM288.207 378.338C267.763 366.312 245.221 355.192 220.583 344.976L219.817 346.824C244.379 357.008 266.837 368.088 287.193 380.062L288.207 378.338ZM220.591 344.98C196.595 334.781 172.298 324.283 147.702 313.484L146.898 315.316C171.502 326.117 195.805 336.619 219.809 346.82L220.591 344.98ZM147.72 313.493C123.164 302.113 100.712 289.539 80.3603 275.772L79.2397 277.428C99.6883 291.261 122.236 303.887 146.88 315.307L147.72 313.493ZM80.3496 275.765C35.0346 245.952 12.4 203.668 12.4 148.8H10.4C10.4 204.332 33.3654 247.248 79.2504 277.435L80.3496 275.765ZM12.4 148.8C12.4 105.25 27.004 70.1275 56.1764 43.3365L54.8236 41.8635C25.196 69.0725 10.4 104.75 10.4 148.8H12.4ZM56.1844 43.3291C85.3293 15.9686 129.139 2.19998 187.8 2.19998V0.19998C128.861 0.19998 84.4707 14.0314 54.8156 41.8709L56.1844 43.3291ZM187.8 2.19998C247.084 2.19998 307.277 12.3797 368.384 32.7486L369.016 30.8513C307.723 10.4202 247.316 0.19998 187.8 0.19998V2.19998ZM367.772 31.4286L364.172 40.4286L366.028 41.1713L369.628 32.1714L367.772 31.4286ZM757.184 609.6L757.904 608.907L757.89 608.892L757.875 608.877L757.184 609.6ZM736.484 556.5H737.484L735.608 556.018L736.484 556.5ZM466.484 534L467.473 533.853L467.471 533.844L467.47 533.836L466.484 534ZM488.984 457.5L488.296 456.774L488.296 456.774L488.984 457.5ZM639.284 417.9L639.346 418.898L639.361 418.897L639.377 418.896L639.284 417.9ZM736.484 417L736.393 417.996L737.484 418.095V417H736.484ZM736.484 267.6H737.484V266.982L736.931 266.706L736.484 267.6ZM736.484 259.5L737.454 259.743L737.457 259.73L737.46 259.717L736.484 259.5ZM732.884 239.7L731.942 240.036L731.957 240.078L731.976 240.119L732.884 239.7ZM720.284 215.4L719.461 215.969L719.461 215.969L720.284 215.4ZM691.484 195.6L691.085 196.517L691.102 196.524L691.119 196.531L691.484 195.6ZM559.184 199.2L559.44 200.167L559.453 200.163L559.184 199.2ZM494.384 222.6L493.515 223.096L494.009 223.96L494.876 223.471L494.384 222.6ZM490.784 216.3L490.365 215.392L489.374 215.848L489.915 216.796L490.784 216.3ZM776.084 212.7L775.337 213.366L775.339 213.368L776.084 212.7ZM809.384 609.6L808.56 610.167L808.58 610.196L808.603 610.225L809.384 609.6ZM830.984 624L831.163 623.016L831.115 623.007L831.067 623.003L830.984 624ZM840.884 625.8L840.705 626.784L840.793 626.8H840.884V625.8ZM868.784 625.8H869.784V624.8H868.784V625.8ZM868.784 633V634H869.784V633H868.784ZM695.084 597L695.734 597.759L695.736 597.758L695.084 597ZM736.484 533.1L737.48 533.188L737.484 533.144V533.1H736.484ZM736.484 424.2H737.484V423.271L736.557 423.203L736.484 424.2ZM638.384 425.1L638.273 424.106L638.266 424.107L638.384 425.1ZM529.484 534L530.48 533.915L530.479 533.908L530.479 533.9L529.484 534ZM840.884 632C800.139 632 772.606 624.196 757.904 608.907L756.463 610.293C771.762 626.204 800.028 634 840.884 634V632ZM757.875 608.877C744.101 595.703 737.484 584.557 737.484 575.4H735.484C735.484 585.443 742.666 597.097 756.492 610.323L757.875 608.877ZM737.484 575.4V556.5H735.484V575.4H737.484ZM735.608 556.018C720.985 582.576 701.985 602.457 678.615 615.705C655.243 628.954 627.445 635.6 595.184 635.6V637.6C627.722 637.6 655.874 630.896 679.602 617.445C703.332 603.993 722.582 583.824 737.36 556.982L735.608 556.018ZM595.184 635.6C557.525 635.6 528.148 627.082 506.932 610.168C485.728 593.264 472.545 567.87 467.473 533.853L465.495 534.147C470.622 568.53 483.99 594.436 505.685 611.732C527.369 629.018 557.242 637.6 595.184 637.6V635.6ZM467.47 533.836C466.279 526.689 465.684 519.544 465.684 512.4H463.684C463.684 519.656 464.288 526.911 465.497 534.164L467.47 533.836ZM465.684 512.4C465.684 504.702 466.868 496.389 469.25 487.458L467.317 486.942C464.899 496.011 463.684 504.498 463.684 512.4H465.684ZM469.25 487.458C471.58 478.721 478.324 468.976 489.671 458.226L488.296 456.774C476.843 467.624 469.788 477.679 467.317 486.942L469.25 487.458ZM489.671 458.226C500.895 447.593 518.932 438.949 543.913 432.367C568.877 425.79 600.682 421.296 639.346 418.898L639.222 416.902C600.485 419.304 568.54 423.81 543.404 430.433C518.285 437.051 499.873 445.807 488.296 456.774L489.671 458.226ZM639.377 418.896C658.552 417.098 676.22 416.2 692.384 416.2V414.2C676.147 414.2 658.416 415.102 639.19 416.904L639.377 418.896ZM692.384 416.2C708.56 416.2 723.229 416.799 736.393 417.996L736.574 416.004C723.338 414.801 708.607 414.2 692.384 414.2V416.2ZM737.484 417V267.6H735.484V417H737.484ZM736.931 266.706C736.923 266.702 736.839 266.663 736.748 266.414C736.654 266.154 736.584 265.739 736.584 265.125C736.584 263.898 736.86 262.117 737.454 259.743L735.513 259.257C734.907 261.683 734.584 263.652 734.584 265.125C734.584 265.861 734.664 266.534 734.869 267.098C735.078 267.674 735.444 268.198 736.036 268.494L736.931 266.706ZM737.46 259.717C738.727 254.014 737.436 247.176 733.792 239.281L731.976 240.119C735.532 247.823 736.64 254.186 735.507 259.283L737.46 259.717ZM733.825 239.364C730.794 230.876 726.553 222.698 721.106 214.831L719.461 215.969C724.815 223.702 728.973 231.724 731.942 240.036L733.825 239.364ZM721.106 214.831C715.545 206.799 705.737 200.104 691.848 194.669L691.119 196.531C704.83 201.896 714.222 208.401 719.461 215.969L721.106 214.831ZM691.882 194.683C677.911 188.609 659.761 185.6 637.484 185.6V187.6C659.606 187.6 677.456 190.591 691.085 196.517L691.882 194.683ZM637.484 185.6C615.164 185.6 588.969 189.822 558.914 198.237L559.453 200.163C589.398 191.778 615.403 187.6 637.484 187.6V185.6ZM558.927 198.233C529.506 206.039 507.805 213.865 493.892 221.729L494.876 223.471C508.562 215.735 530.062 207.961 559.44 200.167L558.927 198.233ZM495.252 222.104L491.652 215.804L489.915 216.796L493.515 223.096L495.252 222.104ZM491.202 217.208C544.48 192.665 598.637 180.4 653.684 180.4V178.4C598.33 178.4 543.888 190.735 490.365 215.392L491.202 217.208ZM653.684 180.4C684.532 180.4 710.086 183.171 730.371 188.69C750.659 194.21 765.61 202.459 775.337 213.366L776.83 212.034C766.757 200.741 751.408 192.34 730.896 186.76C710.381 181.179 684.635 178.4 653.684 178.4V180.4ZM775.339 213.368C790.812 230.626 798.484 248.697 798.484 267.6H800.484C800.484 248.103 792.555 229.574 776.828 212.032L775.339 213.368ZM798.484 267.6V569.1H800.484V267.6H798.484ZM798.484 569.1C798.484 586.608 801.801 600.336 808.56 610.167L810.208 609.033C803.766 599.664 800.484 586.392 800.484 569.1H798.484ZM808.603 610.225C815.875 619.315 823.301 624.363 830.901 624.997L831.067 623.003C824.266 622.437 817.292 617.885 810.164 608.975L808.603 610.225ZM830.805 624.984L840.705 626.784L841.062 624.816L831.163 623.016L830.805 624.984ZM840.884 626.8H868.784V624.8H840.884V626.8ZM867.784 625.8V633H869.784V625.8H867.784ZM868.784 632H840.884V634H868.784V632ZM609.584 630.4C641.633 630.4 670.362 619.507 695.734 597.759L694.433 596.241C669.405 617.693 641.134 628.4 609.584 628.4V630.4ZM695.736 597.758C721.61 575.494 735.646 553.974 737.48 533.188L735.487 533.012C733.722 553.026 720.157 574.106 694.431 596.242L695.736 597.758ZM737.484 533.1V424.2H735.484V533.1H737.484ZM736.557 423.203C720.332 422.001 703.807 421.4 686.984 421.4V423.4C703.76 423.4 720.235 423.999 736.41 425.197L736.557 423.203ZM686.984 421.4C670.746 421.4 654.51 422.302 638.273 424.106L638.494 426.094C654.658 424.298 670.821 423.4 686.984 423.4V421.4ZM638.266 424.107C615.425 426.812 596.524 430.723 581.584 435.854C566.654 440.982 555.605 447.352 548.548 455.023L550.02 456.377C556.762 449.048 567.463 442.818 582.233 437.746C596.993 432.677 615.743 428.788 638.501 426.093L638.266 424.107ZM548.548 455.023C534.532 470.257 527.584 491.225 527.584 517.8H529.584C529.584 491.574 536.435 471.143 550.02 456.377L548.548 455.023ZM527.584 517.8C527.584 522.64 527.886 528.074 528.489 534.099L530.479 533.9C529.881 527.926 529.584 522.56 529.584 517.8H527.584ZM528.487 534.085C531.196 565.987 539.256 590.071 552.793 606.193C566.363 622.356 585.339 630.4 609.584 630.4V628.4C585.828 628.4 567.454 620.544 554.324 604.907C541.161 589.229 533.171 565.613 530.48 533.915L528.487 534.085ZM1235.1 616.8L1234.45 617.559L1234.46 617.567L1234.47 617.574L1235.1 616.8ZM1215.3 584.4L1216.3 584.345L1216.3 584.341L1215.3 584.4ZM1214.4 569.1H1213.4V569.129L1213.41 569.159L1214.4 569.1ZM1177.5 195.6L1177.98 194.719L1177.96 194.707L1177.93 194.697L1177.5 195.6ZM1027.2 232.5L1027.9 233.214L1027.91 233.207L1027.2 232.5ZM981.305 633V634H982.305V633H981.305ZM918.305 633H917.305V634H918.305V633ZM918.305 183V182H917.305V183H918.305ZM981.305 183H982.305V182H981.305V183ZM981.305 285.6H980.305L982.235 285.968L981.305 285.6ZM1038 213.6L1038.63 214.379L1038.64 214.371L1038 213.6ZM1209 189.3L1208.7 190.251L1208.71 190.257L1208.73 190.261L1209 189.3ZM1254.9 215.4L1255.68 214.772L1255.68 214.764L1255.67 214.756L1254.9 215.4ZM1287.3 609.6L1286.48 610.167L1286.5 610.196L1286.52 610.225L1287.3 609.6ZM1308.9 624L1309.08 623.016L1309.04 623.007L1308.99 623.003L1308.9 624ZM1318.8 625.8L1318.63 626.784L1318.71 626.8H1318.8V625.8ZM1346.7 625.8H1347.7V624.8H1346.7V625.8ZM1346.7 633V634H1347.7V633H1346.7ZM1291.8 632C1267.34 632 1248.69 626.627 1235.74 616.026L1234.47 617.574C1247.91 628.573 1267.07 634 1291.8 634V632ZM1235.76 616.041C1223.25 605.325 1216.88 594.756 1216.3 584.345L1214.31 584.455C1214.93 595.644 1221.76 606.675 1234.45 617.559L1235.76 616.041ZM1216.3 584.341L1215.4 569.041L1213.41 569.159L1214.31 584.459L1216.3 584.341ZM1215.4 569.1V286.5H1213.4V569.1H1215.4ZM1215.4 286.5C1215.4 239 1203.08 208.191 1177.98 194.719L1177.03 196.481C1201.12 209.409 1213.4 239.2 1213.4 286.5H1215.4ZM1177.93 194.697C1165.16 188.616 1149.41 185.6 1130.7 185.6V187.6C1149.2 187.6 1164.65 190.584 1177.07 196.503L1177.93 194.697ZM1130.7 185.6C1092 185.6 1057.26 201.031 1026.5 231.793L1027.91 233.207C1058.35 202.769 1092.6 187.6 1130.7 187.6V185.6ZM1026.5 231.786C995.851 261.838 980.305 289.085 980.305 313.5H982.305C982.305 289.915 997.358 263.162 1027.9 233.214L1026.5 231.786ZM980.305 313.5V633H982.305V313.5H980.305ZM981.305 632H918.305V634H981.305V632ZM919.305 633V183H917.305V633H919.305ZM918.305 184H981.305V182H918.305V184ZM980.305 183V285.6H982.305V183H980.305ZM982.235 285.968C992.356 260.367 1011.13 236.5 1038.63 214.379L1037.38 212.821C1009.68 235.1 990.654 259.233 980.375 285.232L982.235 285.968ZM1038.64 214.371C1066.08 191.706 1096.16 180.4 1128.9 180.4V178.4C1095.65 178.4 1065.13 189.894 1037.37 212.829L1038.64 214.371ZM1128.9 180.4C1161.85 180.4 1188.43 183.696 1208.7 190.251L1209.31 188.349C1188.77 181.704 1161.96 178.4 1128.9 178.4V180.4ZM1208.73 190.261C1229.62 196.231 1244.71 204.852 1254.14 216.044L1255.67 214.756C1245.89 203.148 1230.39 194.369 1209.28 188.338L1208.73 190.261ZM1254.13 216.028C1268.95 234.412 1276.4 258.174 1276.4 287.4H1278.4C1278.4 257.826 1270.86 233.588 1255.68 214.772L1254.13 216.028ZM1276.4 287.4V569.1H1278.4V287.4H1276.4ZM1276.4 569.1C1276.4 586.608 1279.72 600.336 1286.48 610.167L1288.13 609.033C1281.69 599.664 1278.4 586.392 1278.4 569.1H1276.4ZM1286.52 610.225C1293.8 619.315 1301.22 624.363 1308.82 624.997L1308.99 623.003C1302.19 622.437 1295.21 617.885 1288.09 608.975L1286.52 610.225ZM1308.73 624.984L1318.63 626.784L1318.98 624.816L1309.08 623.016L1308.73 624.984ZM1318.8 626.8H1346.7V624.8H1318.8V626.8ZM1345.7 625.8V633H1347.7V625.8H1345.7ZM1346.7 632H1291.8V634H1346.7V632ZM1415.4 582.6L1416.07 581.86L1416.07 581.86L1415.4 582.6ZM1417.2 241.5L1416.49 240.793L1416.49 240.798L1417.2 241.5ZM1728.6 233.4L1729.27 232.66L1729.27 232.66L1728.6 233.4ZM1725.9 574.5L1725.19 573.793L1725.19 573.798L1725.9 574.5ZM1462.2 247.8L1463 248.398L1463.01 248.392L1462.2 247.8ZM1458.6 577.2L1459.38 576.579L1459.38 576.579L1458.6 577.2ZM1681.8 569.1L1682.6 569.698L1682.61 569.692L1681.8 569.1ZM1569.3 635.6C1506.5 635.6 1455.46 617.664 1416.07 581.86L1414.73 583.34C1454.54 619.536 1506.1 637.6 1569.3 637.6V635.6ZM1416.07 581.86C1376.75 546.116 1357 490.935 1357 416.1H1355C1355 491.265 1374.85 547.084 1414.73 583.34L1416.07 581.86ZM1357 416.1C1357 341.283 1377.35 283.365 1417.91 242.202L1416.49 240.798C1375.45 282.435 1355 340.917 1355 416.1H1357ZM1417.91 242.207C1459.1 201.01 1511.04 180.4 1573.8 180.4V178.4C1510.56 178.4 1458.1 199.19 1416.49 240.793L1417.91 242.207ZM1573.8 180.4C1637.2 180.4 1688.55 198.338 1727.93 234.14L1729.27 232.66C1689.45 196.462 1637.6 178.4 1573.8 178.4V180.4ZM1727.93 234.14C1767.25 269.884 1787 325.065 1787 399.9H1789C1789 324.735 1769.15 268.916 1729.27 232.66L1727.93 234.14ZM1787 399.9C1787 474.713 1766.36 532.629 1725.19 573.793L1726.61 575.207C1768.24 533.571 1789 475.087 1789 399.9H1787ZM1725.19 573.798C1684.59 614.988 1632.66 635.6 1569.3 635.6V637.6C1633.14 637.6 1685.61 616.812 1726.61 575.202L1725.19 573.798ZM1575.6 185.6C1529.64 185.6 1491.56 206.184 1461.39 247.208L1463.01 248.392C1492.84 207.816 1530.36 187.6 1575.6 187.6V185.6ZM1461.4 247.202C1431.22 287.637 1416.2 344.277 1416.2 417H1418.2C1418.2 344.523 1433.18 288.363 1463 248.398L1461.4 247.202ZM1416.2 417C1416.2 489.096 1430.01 542.764 1457.82 577.821L1459.38 576.579C1431.99 542.036 1418.2 488.904 1418.2 417H1416.2ZM1457.82 577.821C1485.61 612.868 1522.5 630.4 1568.4 630.4V628.4C1523.1 628.4 1486.79 611.132 1459.38 576.579L1457.82 577.821ZM1568.4 630.4C1614.35 630.4 1652.43 610.122 1682.6 569.698L1681 568.502C1651.17 608.478 1613.65 628.4 1568.4 628.4V630.4ZM1682.61 569.692C1712.78 528.662 1727.8 472.026 1727.8 399.9H1725.8C1725.8 471.774 1710.82 527.938 1680.99 568.508L1682.61 569.692ZM1727.8 399.9C1727.8 327.207 1713.99 273.237 1686.18 238.179L1684.62 239.421C1712.01 273.963 1725.8 327.393 1725.8 399.9H1727.8ZM1686.18 238.179C1658.39 203.132 1621.5 185.6 1575.6 185.6V187.6C1620.9 187.6 1657.21 204.868 1684.62 239.421L1686.18 238.179Z" fill="white" mask="url(#path-1-outside-1_1121_9)"/>
</svg>
